<svg xmlns="http://www.w3.org/2000/svg" viewBox="0 0 128 128"><defs><style>.cls-1{fill:#d6e1ea;}.Graphic-Style-5{fill:#fff;}.cls-2{fill:#a6caff;}.cls-3{fill:none;stroke:#2a457f;stroke-linecap:round;stroke-linejoin:round;stroke-width:4px;}</style></defs><title>launch</title><g id="circles"><circle class="cls-1" cx="64" cy="64" r="54"/></g><g id="icons"><path class="Graphic-Style-5" d="M91.271,72.49A100.657,100.657,0,0,1,66.648,87.582c-1.78.8-3.609,1.558-5.5,2.3L38.113,66.856c.746-1.895,1.509-3.724,2.3-5.5A100.657,100.657,0,0,1,55.51,36.729c16.142-18.9,36.1-23.762,54.815-19.054C115.033,36.393,110.169,56.349,91.271,72.49Z"/><path class="Graphic-Style-5" d="M40.418,61.352C28.812,56.226,16,56.226,16,56.226c14.264-14.264,29.79-18.406,39.51-19.5A100.657,100.657,0,0,0,40.418,61.352Z"/><path class="Graphic-Style-5" d="M71.774,112s0-12.812-5.126-24.418A100.657,100.657,0,0,0,91.271,72.49C90.18,82.21,86.038,97.736,71.774,112Z"/><path class="cls-2" d="M51.269,98.056c-7.382,7.382-29.528,8.2-29.528,8.2s.82-22.146,8.2-29.528A15.055,15.055,0,0,1,43.953,72.7L55.3,84.047A15.055,15.055,0,0,1,51.269,98.056Z"/><circle class="cls-2" cx="74.235" cy="53.765" r="11.6" transform="translate(-16.275 68.24) rotate(-45)"/><path class="cls-3" d="M71.37,85.37c-1.52.75-3.1,1.49-4.72,2.21-1.78.8-3.61,1.56-5.51,2.31L55.3,84.05,43.95,72.7l-5.84-5.84c.75-1.9,1.51-3.73,2.31-5.51A100.663,100.663,0,0,1,55.51,36.73c7.3-8.55,15.38-14.23,23.77-17.45a51.015,51.015,0,0,1,31.04-1.6,51.015,51.015,0,0,1-1.6,31.04,54.215,54.215,0,0,1-7.14,12.86"/><path class="cls-3" d="M96.04,68.04c-1.48,1.51-3.07,3-4.77,4.45a87.753,87.753,0,0,1-12.14,8.64"/><path class="cls-3" d="M31.48,44.48A69.547,69.547,0,0,0,16,56.23s12.81,0,24.42,5.12A100.663,100.663,0,0,1,55.51,36.73a63.665,63.665,0,0,0-15.86,3.92"/><path class="cls-3" d="M79.13,81.13a87.753,87.753,0,0,0,12.14-8.64c-1.09,9.72-5.23,25.25-19.5,39.51,0,0,0-12.81-5.12-24.42,1.62-.72,3.2-1.46,4.72-2.21"/><path class="cls-3" d="M23.95,89.95a96.261,96.261,0,0,0-2.21,16.31s22.15-.82,29.53-8.2A15.053,15.053,0,0,0,55.31,84.1c0-.02-.01-.03-.01-.05L43.95,72.7c-.02,0-.03-.01-.05-.01a15.053,15.053,0,0,0-13.96,4.04A16.414,16.414,0,0,0,27,81"/><path class="cls-3" d="M64.8,47a11.866,11.866,0,0,1,1.23-1.44,11.6,11.6,0,1,1,0,16.41A11.462,11.462,0,0,1,63.09,57"/><line class="cls-3" x1="86.5" y1="26.5" x2="79.28" y2="19.28"/><line class="cls-3" x1="108.72" y1="48.72" x2="92.5" y2="32.5"/></g></svg>